HIERARCHY
ROOT Hips
{
 OFFSET 0.000000 0.000000 0.000000
 CHANNELS 6 Xposition Yposition Zposition Yrotation Xrotation Zrotation
 JOINT Chest
 {
  OFFSET 0.000000 10.383400 0.001500
  CHANNELS 3 Yrotation Xrotation Zrotation
  JOINT Chest2
  {
   OFFSET 0.000000 10.418200 -0.003100
   CHANNELS 3 Yrotation Xrotation Zrotation
   JOINT Chest3
   {
    OFFSET 0.000000 10.375100 0.000000
    CHANNELS 3 Yrotation Xrotation Zrotation
    JOINT Chest4
    {
     OFFSET 0.000000 10.364600 0.000000
     CHANNELS 3 Yrotation Xrotation Zrotation
     JOINT Neck
     {
      OFFSET 0.000000 15.642200 0.000000
      CHANNELS 3 Yrotation Xrotation Zrotation
      JOINT Head
      {
       OFFSET 0.000000 9.697300 -0.006500
       CHANNELS 3 Yrotation Xrotation Zrotation
       End Site
       {
        OFFSET 0.000000 18.492200 -0.003400
       }
      }
     }
     JOINT RightCollar
     {
      OFFSET -3.166800 10.349300 0.000000
      CHANNELS 3 Yrotation Xrotation Zrotation
      JOINT RightShoulder
      {
       OFFSET -14.729700 0.000000 0.000000
       CHANNELS 3 Yrotation Xrotation Zrotation
       JOINT RightElbow
       {
        OFFSET 0.000000 -32.224300 0.000000
        CHANNELS 3 Yrotation Xrotation Zrotation
        JOINT RightWrist
        {
         OFFSET 0.000000 -26.084100 0.000000
         CHANNELS 3 Yrotation Xrotation Zrotation
         End Site
         {
          OFFSET 0.000000 -19.319400 0.000000
         }
        }
       }
      }
     }
     JOINT LeftCollar
     {
      OFFSET 3.166800 10.349300 0.000000
      CHANNELS 3 Yrotation Xrotation Zrotation
      JOINT LeftShoulder
      {
       OFFSET 14.729700 0.000000 0.000000
       CHANNELS 3 Yrotation Xrotation Zrotation
       JOINT LeftElbow
       {
        OFFSET 0.000000 -32.224300 0.000000
        CHANNELS 3 Yrotation Xrotation Zrotation
        JOINT LeftWrist
        {
         OFFSET 0.000000 -26.084100 0.000000
         CHANNELS 3 Yrotation Xrotation Zrotation
         End Site
         {
          OFFSET 0.000000 -19.319400 0.000000
         }
        }
       }
      }
     }
    }
   }
  }
 }
 JOINT RightHip
 {
  OFFSET -8.428900 -0.007500 -0.000800
  CHANNELS 3 Yrotation Xrotation Zrotation
  JOINT RightKnee
  {
   OFFSET 0.000000 -43.834600 0.000700
   CHANNELS 3 Yrotation Xrotation Zrotation
   JOINT RightAnkle
   {
    OFFSET 0.000000 -42.757000 0.001200
    CHANNELS 3 Yrotation Xrotation Zrotation
    JOINT RightToe
    {
     OFFSET 0.000000 -6.946900 15.649300
     CHANNELS 3 Yrotation Xrotation Zrotation
     End Site
     {
      OFFSET 0.000000 -1.580800 6.825800
     }
    }
   }
  }
 }
 JOINT LeftHip
 {
  OFFSET 8.428900 -0.007500 -0.000800
  CHANNELS 3 Yrotation Xrotation Zrotation
  JOINT LeftKnee
  {
   OFFSET 0.000000 -43.834600 0.000700
   CHANNELS 3 Yrotation Xrotation Zrotation
   JOINT LeftAnkle
   {
    OFFSET 0.000000 -42.757000 0.001200
    CHANNELS 3 Yrotation Xrotation Zrotation
    JOINT LeftToe
    {
     OFFSET 0.000000 -6.946900 15.649300
     CHANNELS 3 Yrotation Xrotation Zrotation
     End Site
     {
      OFFSET 0.000000 -1.580800 6.825800
     }
    }
   }
  }
 }
}
MOTION
Frames: 12
Frame Time: 0.008333
126.464758 126.338552 21.162929 -11.092224 -18.062079 -2.661198 -1.993972 21.190979 2.500413 -0.319682 2.827063 0.369267 -0.512214 4.608536 0.594099 -1.783138 18.070382 2.129567 1.593832 5.636946 -1.614909 4.137987 -25.297813 -4.160692 -4.635232 -6.284505 -7.510605 6.019379 -14.581083 0.737032 30.676228 -58.185517 -12.879522 8.635952 7.816537 -24.676906 -6.694803 -7.616305 0.171726 2.767764 -24.078079 17.813658 -17.289363 -21.934889 3.135716 -12.269868 3.525955 -16.128441 -8.007182 -49.372957 0.150612 -19.517376 67.508019 -19.259363 -0.881365 2.411737 4.777135 0.058479 -0.054961 0.025937 -6.469323 -43.861576 -7.477582 -0.364147 64.218661 2.193194 -13.319200 0.734989 -3.049076 0.001027 0.005651 0.000456
126.466020 126.340227 21.162587 -11.080370 -18.081524 -2.677745 -2.020760 21.243238 2.473115 -0.316813 2.829053 0.373537 -0.506476 4.606897 0.599776 -1.780526 18.105702 2.132584 1.603059 5.608514 -1.592334 4.143621 -25.318611 -4.144886 -4.562869 -6.385062 -7.557123 6.042865 -14.494501 0.645615 30.005536 -58.276051 -12.186973 8.697473 7.798088 -24.751893 -6.643634 -7.545509 0.141156 2.927205 -24.088918 17.490349 -17.132540 -21.930650 3.248116 -12.121469 3.172656 -16.022745 -8.277239 -49.313705 0.356384 -19.354594 67.473287 -19.264666 -0.837022 2.361883 4.804131 0.021365 -0.009839 0.009483 -6.488830 -43.836445 -7.449031 -0.426751 64.217001 2.117542 -13.312518 0.738937 -3.055445 -0.001472 0.003468 -0.000654
126.467555 126.341672 21.161385 -11.072193 -18.092747 -2.684770 -2.029379 21.264599 2.472676 -0.318657 2.833271 0.372334 -0.513521 4.631906 0.595169 -1.771054 18.128226 2.130133 1.608176 5.573635 -1.576620 4.128269 -25.340243 -4.104255 -4.510173 -6.460230 -7.618187 6.111536 -14.443859 0.590309 29.338427 -58.336314 -11.562729 8.766977 7.784813 -24.834754 -6.605372 -7.468263 0.104404 3.091138 -24.089300 17.182627 -16.904491 -22.009503 3.356877 -11.924853 2.683483 -15.859844 -8.541746 -49.259733 0.516714 -19.171544 67.440022 -19.224179 -0.774615 2.344070 4.808549 -0.001277 0.012733 -0.000567 -6.505488 -43.823768 -7.420992 -0.494430 64.214455 2.031644 -13.319746 0.744248 -3.050386 -0.001895 0.001749 -0.000841
126.469001 126.343322 21.160506 -11.061168 -18.104098 -2.685256 -2.042193 21.285332 2.466072 -0.320784 2.847467 0.370086 -0.513670 4.640154 0.595235 -1.739049 18.135347 2.123239 1.599853 5.550514 -1.562853 4.098219 -25.372268 -4.059905 -4.498083 -6.493711 -7.674282 6.243549 -14.433619 0.544368 28.681150 -58.358148 -11.034811 8.829471 7.762411 -24.902476 -6.598577 -7.370134 0.072150 3.258299 -24.069218 16.890704 -16.584211 -22.184201 3.456757 -11.666956 2.076144 -15.615036 -8.724913 -49.215870 0.587031 -19.015545 67.421415 -19.144538 -0.697466 2.324198 4.827055 -0.042477 0.046960 -0.018870 -6.520526 -43.808585 -7.393590 -0.580134 64.206157 1.921229 -13.321048 0.745476 -3.051564 -0.003949 -0.002087 -0.001753
126.470823 126.344457 21.157706 -11.064331 -18.105190 -2.674693 -2.032486 21.301894 2.455796 -0.319123 2.851649 0.369604 -0.464082 4.667854 0.581787 -1.730064 18.121334 2.128500 1.579740 5.525120 -1.546798 4.050025 -25.413700 -4.008342 -4.532106 -6.511394 -7.704969 6.426770 -14.452409 0.489471 28.067921 -58.345333 -10.621602 8.865855 7.722068 -24.942139 -6.625918 -7.269066 0.054236 3.428490 -24.027094 16.616222 -16.157245 -22.466222 3.539535 -11.324096 1.403598 -15.266617 -8.773502 -49.199754 0.584222 -19.009141 67.410675 -19.140152 -0.647926 2.318602 4.810122 -0.045467 0.046378 -0.020198 -6.508428 -43.799701 -7.390636 -0.599958 64.193369 1.878620 -13.309044 0.744579 -3.041206 -0.002654 -0.004398 -0.001178
126.471662 126.345630 21.154498 -11.062492 -18.107597 -2.666054 -1.959808 21.321338 2.459764 -0.291249 2.861258 0.363131 -0.495616 4.658615 0.590364 -1.697548 18.135391 2.121334 1.549796 5.496092 -1.526755 3.975969 -25.463641 -3.948716 -4.605926 -6.526079 -7.701201 6.629356 -14.484543 0.416842 27.507788 -58.307917 -10.296882 8.870111 7.655739 -24.953555 -6.680476 -7.167594 0.053184 3.604288 -23.964936 16.357843 -15.607016 -22.862322 3.593014 -10.868537 0.716765 -14.806115 -8.798174 -49.186962 0.561244 -18.997551 67.407024 -19.112574 -0.620894 2.326624 4.802959 -0.048686 0.044076 -0.021627 -6.483757 -43.787301 -7.398328 -0.607190 64.179955 1.857113 -13.304096 0.741845 -3.027236 -0.001429 -0.005792 -0.000634
126.474869 126.347063 21.153006 -11.047722 -18.120542 -2.642811 -1.969345 21.335485 2.432182 -0.227642 2.872421 0.348033 -0.486856 4.667620 0.587129 -1.662638 18.153172 2.110322 1.514275 5.461287 -1.502510 3.892431 -25.562266 -3.875906 -4.707213 -6.550141 -7.654864 6.812656 -14.512968 0.325398 26.989857 -58.263641 -10.007409 8.844463 7.560964 -24.945109 -6.748906 -7.068667 0.069620 3.792361 -23.885881 16.112467 -14.916019 -23.374176 3.599322 -10.286428 0.038582 -14.231870 -8.771317 -49.174363 0.473133 -18.945893 67.417218 -19.032590 -0.604824 2.352982 4.825764 -0.069416 0.036896 -0.030833 -6.436886 -43.762435 -7.447838 -0.632412 64.160753 1.836532 -13.307989 0.745873 -3.016636 0.000286 -0.005077 0.000127
126.477024 126.348257 21.150781 -11.022992 -18.134720 -2.626587 -1.853251 21.356959 2.428261 -0.277638 2.873904 0.356993 -0.478313 4.678248 0.583064 -1.628594 18.173736 2.095916 1.477952 5.421275 -1.475303 3.807401 -25.653558 -3.803563 -4.821128 -6.587713 -7.569848 6.931083 -14.526484 0.230340 26.516504 -58.229111 -9.707560 8.801591 7.441974 -24.932964 -6.816417 -6.975140 0.093841 3.988157 -23.788843 15.884786 -14.054744 -24.010688 3.537091 -9.588030 -0.619395 -13.535154 -8.724233 -49.173391 0.389850 -19.054701 67.430081 -19.074523 -0.596253 2.373896 4.798846 -0.047204 0.017074 -0.020960 -6.385778 -43.733415 -7.506388 -0.662340 64.141339 1.825110 -13.310155 0.747191 -3.005860 0.001245 -0.001486 0.000552
126.480406 126.349756 21.150698 -10.957281 -18.161642 -2.613040 -1.819726 21.389717 2.402351 -0.294237 2.878708 0.359667 -0.470414 4.688587 0.578678 -1.597374 18.193768 2.080037 1.418550 5.377782 -1.416388 3.768309 -25.711346 -3.768308 -4.909950 -6.616820 -7.501475 6.911060 -14.536800 0.188429 26.109909 -58.217868 -9.376087 8.766600 7.314290 -24.934271 -6.869006 -6.882131 0.111804 4.188159 -23.670600 15.674381 -12.983661 -24.797453 3.385159 -8.794662 -1.242718 -12.688561 -8.734794 -49.184872 0.346523 -19.207768 67.459930 -19.198073 -0.629274 2.414871 4.767250 0.004982 -0.019407 0.002211 -6.353362 -43.687275 -7.587680 -0.639317 64.113179 1.863761 -13.334041 0.750282 -2.994811 0.000234 0.000909 0.000104
126.479296 126.349609 21.144881 -10.944397 -18.165720 -2.613516 -1.761512 21.393070 2.402351 -0.289927 2.884050 0.356895 -0.496466 4.692093 0.590352 -1.543636 18.214874 2.044021 1.372344 5.345635 -1.364816 3.725810 -25.734734 -3.730372 -4.978009 -6.643722 -7.435423 6.763436 -14.524938 0.189326 25.800911 -58.233337 -9.030436 8.759821 7.189804 -24.956399 -6.896134 -6.775603 0.117171 4.406086 -23.533710 15.467215 -11.661818 -25.758619 3.109320 -7.931879 -1.831006 -11.640980 -8.778494 -49.191287 0.372014 -19.222326 67.471533 -19.183292 -0.670158 2.440607 4.701058 0.049076 -0.042924 0.021770 -6.304138 -43.669389 -7.621712 -0.514548 64.102043 1.990412 -13.388730 0.741802 -2.983789 -0.000686 0.003696 -0.000304
126.478817 126.349645 21.141130 -10.927592 -18.180816 -2.610804 -1.726152 21.401019 2.391224 -0.308292 2.890866 0.366377 -0.487996 4.699379 0.587987 -1.508346 18.218444 2.009024 1.366429 5.331023 -1.348309 3.659100 -25.807421 -3.668161 -5.015697 -6.650594 -7.374973 6.510385 -14.499383 0.234183 25.602736 -58.265532 -8.709685 8.782621 7.065629 -24.995765 -6.892831 -6.642491 0.110911 4.667939 -23.382806 15.247918 -10.058858 -26.902269 2.656047 -7.030703 -2.404391 -10.332492 -8.825508 -49.181253 0.390323 -19.183104 67.481636 -19.134405 -0.696133 2.443212 4.662716 0.062993 -0.043282 0.027944 -6.220050 -43.631523 -7.691231 -0.500319 64.080389 2.064385 -13.456277 0.724907 -3.006736 -0.005285 0.008728 -0.002347
126.480437 126.349894 21.139988 -10.900601 -18.206275 -2.599130 -1.736575 21.421650 2.366011 -0.302530 2.893777 0.365023 -0.457490 4.703154 0.569677 -1.523626 18.216873 2.019746 1.400849 5.282998 -1.410114 3.571569 -25.888231 -3.560269 -5.002198 -6.647631 -7.381661 6.204652 -14.464515 0.340741 25.496881 -58.303769 -8.448368 8.823840 6.948404 -25.045039 -6.840118 -6.495275 0.060254 5.006403 -23.222549 15.009056 -8.173914 -28.224599 1.966557 -6.108028 -2.990876 -8.723432 -8.854817 -49.158570 0.372846 -19.140924 67.487300 -19.092779 -0.688901 2.444896 4.668061 0.047716 -0.037934 0.021169 -6.206387 -43.598783 -7.735236 -0.422573 64.067566 2.140530 -13.498893 0.728782 -3.004776 -0.005953 0.007901 -0.002643
